# xmcd
#
# Track frame offsets: 
#        150
#        23880
#        40307
#        50349
#        68030
#        82490
#        94399
#        109526
#        125864
#        139936
#        153416
#        166466
#        179885
#        198412
#        219328
#        237134
#        256021
#        279025
#        293179
#        306567
#
# Disc length: 4378 seconds
#
# Revision: 0
# Processed by: cddbd v1.5.2PL0 Copyright (c) Steve Scherf et al.
# Submitted via: ExactAudioCopy v0.99pb5
#
DISCID=2f111814
DTITLE=Wiener Blue(s) - Wenn der Ziegelböhm tanzt
DYEAR=2009
DGENRE=Blues
TTITLE0=Wenn der Ziegelböhm tanzt
TTITLE1=A picktes Häferl
TTITLE2=Heitschi Bumbeitschi
TTITLE3=Anleitung zum Selbstmord
TTITLE4=Hobellied
TTITLE5=Das Lied ist modern in Wien
TTITLE6=Wampnlied
TTITLE7=Die Plastikros'n
TTITLE8=Die Lindenwirtin
TTITLE9=Granatentanz
TTITLE10=Powidltatschkerl
TTITLE11=Weanastadt
TTITLE12=Moralischer
TTITLE13=Gschupfter Ferdl
TTITLE14=Schabernack
TTITLE15=Schneeflockerl
TTITLE16=Ringelspiel
TTITLE17=Wann i amoi stirb
TTITLE18=I hab di gern
TTITLE19=Spompernadln
EXTD=
EXTT0=
EXTT1=
EXTT2=
EXTT3=
EXTT4=
EXTT5=
EXTT6=
EXTT7=
EXTT8=
EXTT9=
EXTT10=
EXTT11=
EXTT12=
EXTT13=
EXTT14=
EXTT15=
EXTT16=
EXTT17=
EXTT18=
EXTT19=
PLAYORDER=
